<svg width="174" height="38" viewBox="0 0 174 38" fill="none" xmlns="http://www.w3.org/2000/svg">
<rect width="174" height="38" fill="#E5E5E5"/>
<g clip-path="url(#clip0)">
<rect width="1440" height="2116" transform="translate(-222 -91)" fill="white"/>
<path d="M-302.313 -74.7501L512.5 -131L598.622 388.284L-268.644 444.518L-302.313 -74.7501Z" fill="#F4F4F4"/>
<path fill-rule="evenodd" clip-rule="evenodd" d="M2.29188 37.485C2.29188 37.485 2.2321 37.485 2.24283 36.9523C2.33021 32.6385 7.94726 13.4814 85.4439 19.0275C34.3431 8.97946 10.4614 19.521 3.4478 26.6019C-2.20452 32.3105 0.504362 36.0857 1.76759 37.3345C2.07113 37.6354 2.29188 37.485 2.29188 37.485Z" fill="#FDB724"/>
<path fill-rule="evenodd" clip-rule="evenodd" d="M40.1736 28.128C40.1736 25.0299 40.1736 24.4537 40.149 23.8037C40.1 23.1085 39.9053 22.8918 39.22 22.7008C39.0483 22.6511 38.6819 22.6285 38.363 22.6285C38.1423 22.6285 37.9951 22.5548 37.9951 22.4119C37.9951 22.2674 38.1668 22.2193 38.4842 22.2193C39.6109 22.2193 40.9815 22.2674 41.4215 22.2674C42.1558 22.2674 44.1135 22.2193 44.7742 22.2193C46.1448 22.2193 47.7115 22.3396 48.8613 23.0844C49.473 23.4922 50.3775 24.5259 50.3775 25.8936C50.3775 27.4073 49.4975 28.7524 47.3926 30.4106C49.3013 32.7157 50.819 34.5649 52.1159 35.8378C53.3148 37.0144 54.0736 37.1107 54.4155 37.183C54.6363 37.2311 54.7589 37.2311 54.9291 37.2311C55.1023 37.2311 55.1989 37.3515 55.1989 37.4478C55.1989 37.6148 55.0532 37.6629 54.7834 37.6629H52.7276C51.5288 37.6629 50.9416 37.5441 50.3775 37.2552C49.4485 36.7993 48.6405 35.8378 47.4417 34.2534C46.5847 33.1475 45.6787 31.7783 45.4104 31.4668C45.2878 31.3464 45.1651 31.3224 45.0195 31.3224L43.0848 31.2742C42.9882 31.2742 42.9146 31.3224 42.9146 31.4427V31.7316C42.9146 33.629 42.9392 35.2134 43.0373 36.0786C43.1109 36.6789 43.2074 37.0626 43.8682 37.1589C44.1871 37.207 44.6516 37.2311 44.9214 37.2311C45.0931 37.2311 45.1897 37.3515 45.1897 37.4478C45.1897 37.5922 45.0195 37.6629 44.7497 37.6629C43.5018 37.6629 41.7158 37.5922 41.3969 37.5922C40.9815 37.5922 39.6109 37.6629 38.754 37.6629C38.4842 37.6629 38.3385 37.5922 38.3385 37.4478C38.3385 37.3515 38.4121 37.2311 38.6819 37.2311C38.9993 37.2311 39.2445 37.207 39.4392 37.1589C39.8808 37.0626 40.0034 36.6789 40.0755 36.0786C40.1736 35.2134 40.1736 33.6049 40.1736 31.7316V28.128ZM42.9146 29.7124C42.9146 29.9291 42.9622 30.0028 43.1109 30.0735C43.5754 30.218 44.2116 30.2661 44.7497 30.2661C45.6067 30.2661 45.8995 30.1939 46.2674 29.9291C46.9281 29.4732 47.6609 28.5854 47.6609 26.9032C47.6609 24.0218 45.6557 23.2755 44.3833 23.2755C43.8452 23.2755 43.3301 23.3011 43.1109 23.3493C42.9622 23.3959 42.9146 23.4696 42.9146 23.6366V29.7124Z" fill="black"/>
<path fill-rule="evenodd" clip-rule="evenodd" d="M58.5271 28.128C58.5271 25.0299 58.5271 24.4537 58.5026 23.8037C58.4535 23.1085 58.2573 22.8918 57.572 22.7007C57.4003 22.6511 57.0339 22.6285 56.715 22.6285C56.4958 22.6285 56.3486 22.5548 56.3486 22.4119C56.3486 22.2674 56.5203 22.2193 56.8377 22.2193C57.9645 22.2193 59.3335 22.2674 59.9467 22.2674C60.6319 22.2674 65.4028 22.2915 65.8197 22.2674C66.2107 22.2433 66.5541 22.1711 66.7242 22.147C66.8469 22.123 66.9695 22.0522 67.0676 22.0522C67.1887 22.0522 67.2148 22.147 67.2148 22.2433C67.2148 22.3878 67.0922 22.6285 67.0431 23.5644C67.0186 23.7811 66.9695 24.6703 66.9205 24.9096C66.8959 25.0059 66.8469 25.2451 66.6767 25.2451C66.528 25.2451 66.505 25.1503 66.505 24.9818C66.505 24.8373 66.4789 24.4762 66.3578 24.2385C66.1861 23.8774 66.0144 23.5885 64.9382 23.4922C64.5703 23.444 62.0025 23.3959 61.561 23.3959C61.4644 23.3959 61.4138 23.4696 61.4138 23.5885V28.6321C61.4138 28.7524 61.4383 28.8487 61.561 28.8487C62.05 28.8487 64.8401 28.8487 65.3292 28.8006C65.8427 28.7524 66.1371 28.6802 66.3578 28.4891C66.528 28.3447 66.6031 28.2243 66.7012 28.2243C66.7978 28.2243 66.8714 28.3191 66.8714 28.441C66.8714 28.5598 66.8239 28.8969 66.7012 29.9291C66.6506 30.3368 66.6031 31.1554 66.6031 31.2983C66.6031 31.4668 66.5786 31.7542 66.3824 31.7542C66.2352 31.7542 66.1861 31.6835 66.1861 31.5872C66.1616 31.3705 66.1616 31.1057 66.1125 30.8424C65.9899 30.4346 65.7216 30.1217 64.9137 30.0494C64.5228 30.0028 62.0745 29.9531 61.5364 29.9531C61.4383 29.9531 61.4138 30.0494 61.4138 30.1698V31.8024C61.4138 32.499 61.3908 34.2294 61.4138 34.8297C61.4644 36.2215 62.1251 36.5345 64.3266 36.5345C64.8892 36.5345 65.7952 36.5104 66.3578 36.2712C66.8959 36.0304 67.1412 35.5971 67.2869 34.7575C67.3374 34.5408 67.385 34.4445 67.5321 34.4445C67.7023 34.4445 67.7284 34.7093 67.7284 34.926C67.7284 35.3819 67.5567 36.7752 67.434 37.183C67.2869 37.7111 67.0922 37.7111 66.2858 37.7111C64.6684 37.7111 63.3715 37.6885 62.3198 37.6389C61.2682 37.6148 60.4602 37.5922 59.824 37.5922C59.5787 37.5922 59.1142 37.6148 58.6007 37.6148C58.0871 37.6389 57.549 37.663 57.1075 37.663C56.8377 37.663 56.692 37.5922 56.692 37.4478C56.692 37.3515 56.7656 37.2311 57.0339 37.2311C57.3512 37.2311 57.5965 37.2071 57.7928 37.1589C58.2343 37.0626 58.3554 36.6789 58.429 36.0786C58.5271 35.2134 58.5271 33.6049 58.5271 31.7316V28.128Z" fill="black"/>
<path fill-rule="evenodd" clip-rule="evenodd" d="M79.0112 36.3661C81.2142 36.3661 81.973 35.9343 82.3394 35.3098C82.5111 34.9969 82.6568 34.6614 82.7319 34.3725C82.7794 34.1573 82.8285 34.0369 82.9757 34.0369C83.1474 34.0369 83.1949 34.1814 83.1949 34.6613C83.1949 35.3339 82.9266 36.6535 82.7794 37.1591C82.6568 37.5202 82.5111 37.6872 82.1187 37.6872C78.5222 37.6872 74.8751 37.5909 70.5197 37.5909C70.2744 37.5909 70.1533 37.5202 70.1533 37.3757C70.1533 37.2554 70.1763 37.135 70.4216 36.7739C73.4555 32.284 76.5875 27.6723 79.4773 23.4683H75.4132C74.314 23.4683 73.04 23.4683 72.3548 23.8279C71.6465 24.2131 71.254 24.9097 71.205 25.3897C71.1559 25.6771 71.0578 25.7508 70.9352 25.7508C70.7895 25.7508 70.7144 25.6545 70.7144 25.4138C70.7144 24.9338 71.0333 23.0846 71.1559 22.4602C71.1805 22.1713 71.2786 22.075 71.4012 22.075C71.5974 22.075 71.7185 22.1954 72.2566 22.2194C74.314 22.2917 75.3411 22.2676 76.2226 22.2676H82.853C83.0738 22.2676 83.2209 22.3398 83.2209 22.4361C83.2209 22.6031 83.1719 22.6753 83.0983 22.8198C80.1119 27.4074 76.8834 32.0673 73.8479 36.3661H79.0112Z" fill="black"/>
<path fill-rule="evenodd" clip-rule="evenodd" d="M94.0991 36.3661C96.3021 36.3661 97.0609 35.9343 97.4289 35.3098C97.599 34.9969 97.7462 34.6614 97.8183 34.3725C97.8689 34.1573 97.9164 34.0369 98.0635 34.0369C98.2352 34.0369 98.2828 34.1814 98.2828 34.6613C98.2828 35.3339 98.016 36.6535 97.8689 37.1591C97.7462 37.5202 97.599 37.6872 97.2066 37.6872C93.6101 37.6872 89.9645 37.5909 85.6076 37.5909C85.3639 37.5909 85.2412 37.5202 85.2412 37.3757C85.2412 37.2554 85.2642 37.135 85.5095 36.7739C88.5434 32.284 91.6769 27.6723 94.5652 23.4683H90.5011C89.4019 23.4683 88.1279 23.4683 87.4427 23.8279C86.7344 24.2131 86.3419 24.9097 86.2929 25.3897C86.2438 25.6771 86.1472 25.7508 86.0231 25.7508C85.8774 25.7508 85.8023 25.6545 85.8023 25.4138C85.8023 24.9338 86.1212 23.0846 86.2438 22.4602C86.2684 22.1713 86.3665 22.075 86.4891 22.075C86.6853 22.075 86.8064 22.1954 87.3445 22.2194C89.4019 22.2917 90.4275 22.2676 91.3105 22.2676H97.9409C98.1617 22.2676 98.3088 22.3398 98.3088 22.4361C98.3088 22.6031 98.2598 22.6753 98.1862 22.8198C95.2014 27.4074 91.9697 32.0673 88.9358 36.3661H94.0991Z" fill="black"/>
<path fill-rule="evenodd" clip-rule="evenodd" d="M100.116 29.9294C100.116 26.4476 102.612 21.9307 109.146 21.9307C114.579 21.9307 117.956 24.8858 117.956 29.5683C117.956 34.2538 114.481 37.9266 108.925 37.9266C102.66 37.9266 100.116 33.5556 100.116 29.9294ZM114.749 30.3131C114.749 25.7976 111.983 23.0125 108.51 23.0125C106.11 23.0125 103.296 24.2614 103.296 29.305C103.296 33.5074 105.744 36.8237 109.805 36.8237C111.324 36.8237 114.749 36.1255 114.749 30.3131Z" fill="black"/>
<path fill-rule="evenodd" clip-rule="evenodd" d="M124.485 37.3756C124.092 37.2071 124.019 37.0882 124.019 36.5601C124.019 35.2375 124.118 33.7961 124.141 33.4124C124.167 33.0513 124.239 32.788 124.436 32.788C124.655 32.788 124.679 33.0046 124.679 33.1957C124.679 33.5087 124.777 34.0127 124.9 34.422C125.438 36.199 126.881 36.846 128.4 36.846C130.601 36.846 131.678 35.382 131.678 34.109C131.678 32.9309 131.311 31.8265 129.281 30.2647L128.156 29.401C125.463 27.3366 124.532 25.6529 124.532 23.7089C124.532 21.0668 126.786 19.1694 130.187 19.1694C131.777 19.1694 132.806 19.4101 133.442 19.5772C133.66 19.6253 133.782 19.6975 133.782 19.8661C133.782 20.179 133.686 20.8742 133.686 22.749C133.686 23.2771 133.612 23.4682 133.416 23.4682C133.246 23.4682 133.172 23.3252 133.172 23.0363C133.172 22.8197 133.05 22.0749 132.536 21.452C132.168 20.9945 131.458 20.2738 129.869 20.2738C128.057 20.2738 126.956 21.306 126.956 22.749C126.956 23.8534 127.518 24.693 129.551 26.2066L130.235 26.7122C133.197 28.8969 134.249 30.5536 134.249 32.8361C134.249 34.2279 133.71 35.886 131.947 37.0145C130.724 37.7834 129.354 38.0001 128.057 38.0001C126.637 38.0001 125.538 37.8315 124.485 37.3756Z" fill="black"/>
<path fill-rule="evenodd" clip-rule="evenodd" d="M140.632 29.0404H140.729C141.463 28.2715 144.595 25.2457 145.231 24.549C145.843 23.8764 146.309 23.3965 146.309 23.0353C146.309 22.8202 146.213 22.6757 146.015 22.6276C145.82 22.5809 145.72 22.5313 145.72 22.4109C145.72 22.268 145.843 22.2198 146.065 22.2198C146.53 22.2198 147.703 22.268 148.291 22.268C148.952 22.268 150.15 22.2198 150.811 22.2198C151.032 22.2198 151.179 22.268 151.179 22.4109C151.179 22.5554 151.056 22.6276 150.86 22.6276C150.543 22.6276 150.003 22.7239 149.612 22.8683C148.927 23.1091 148.242 23.5409 147.336 24.382C146.653 25.0049 143.447 27.9841 142.785 28.7289C143.543 29.6889 147.778 34.0132 148.608 34.7806C149.562 35.6217 150.396 36.5094 151.545 36.9669C152.182 37.2302 152.622 37.2302 152.867 37.2302C153.039 37.2302 153.161 37.3265 153.161 37.4468C153.161 37.5913 153.039 37.662 152.646 37.662H150.762C150.126 37.662 149.733 37.662 149.269 37.6154C148.12 37.5191 147.41 37.0872 146.479 36.2943C145.55 35.5013 141.416 30.7948 140.95 30.1689L140.729 29.8815H140.632V31.7307C140.632 33.604 140.632 35.2139 140.68 36.1017C140.729 36.6795 140.925 37.0631 141.463 37.1594C141.758 37.2076 142.247 37.2302 142.516 37.2302C142.688 37.2302 142.811 37.3505 142.811 37.4468C142.811 37.5913 142.639 37.662 142.394 37.662C141.193 37.662 139.653 37.5913 139.115 37.5913C138.624 37.5913 137.255 37.662 136.398 37.662C136.128 37.662 135.983 37.5913 135.983 37.4468C135.983 37.3505 136.056 37.2302 136.324 37.2302C136.642 37.2302 136.887 37.2076 137.085 37.1594C137.525 37.0631 137.646 36.6795 137.721 36.0776C137.818 35.2139 137.818 33.604 137.818 31.7307V28.1286C137.818 25.029 137.818 24.4527 137.792 23.8042C137.744 23.1091 137.548 22.8924 136.863 22.6998C136.692 22.6517 136.324 22.6276 136.006 22.6276C135.786 22.6276 135.639 22.5554 135.639 22.4109C135.639 22.268 135.809 22.2198 136.128 22.2198C137.255 22.2198 138.624 22.268 139.139 22.268C139.653 22.268 141.193 22.2198 141.905 22.2198C142.222 22.2198 142.369 22.268 142.369 22.4109C142.369 22.5554 142.247 22.6276 142.075 22.6276C141.856 22.6276 141.733 22.6517 141.463 22.6998C140.876 22.7961 140.706 23.0835 140.657 23.8042C140.632 24.4527 140.632 25.029 140.632 28.1286V29.0404Z" fill="black"/>
<path fill-rule="evenodd" clip-rule="evenodd" d="M158.472 32.3553C158.472 31.2509 158.275 30.819 157.983 30.2172C157.836 29.9057 154.9 25.4143 154.141 24.3325C153.601 23.5892 153.161 23.1077 152.746 22.891C152.476 22.7481 152.11 22.6277 151.84 22.6277C151.67 22.6277 151.522 22.5555 151.522 22.4111C151.522 22.2666 151.67 22.22 151.936 22.22C152.306 22.22 153.919 22.2666 154.63 22.2666C155.094 22.2666 156.097 22.22 157.077 22.22C157.273 22.22 157.396 22.2666 157.396 22.4111C157.396 22.5796 157.248 22.5796 156.906 22.6759C156.733 22.724 156.612 22.8203 156.612 22.9873C156.612 23.1559 156.71 23.3966 156.88 23.684C157.273 24.3084 160.086 29.0887 160.454 29.665C160.722 29.185 163.341 24.814 163.66 24.188C163.879 23.7336 163.977 23.3725 163.977 23.1077C163.977 22.9166 163.879 22.724 163.512 22.6518C163.316 22.6037 163.121 22.5796 163.121 22.4111C163.121 22.2666 163.243 22.22 163.486 22.22C164.198 22.22 164.956 22.2666 165.594 22.2666C166.057 22.2666 167.477 22.22 167.894 22.22C168.138 22.22 168.283 22.2666 168.283 22.387C168.283 22.5314 168.113 22.6277 167.869 22.6277C167.647 22.6277 167.256 22.724 166.937 22.8685C166.474 23.0836 166.278 23.2762 165.812 23.8284C165.104 24.6455 162.019 29.4979 161.628 30.3616C161.311 31.1064 161.358 31.7308 161.358 32.4034V34.036C161.358 34.373 161.358 35.2126 161.409 36.0778C161.457 36.6796 161.651 37.0633 162.289 37.1596C162.606 37.2077 163.072 37.2303 163.365 37.2303C163.61 37.2303 163.733 37.3507 163.733 37.447C163.733 37.5914 163.561 37.6637 163.269 37.6637C161.921 37.6637 160.478 37.5914 159.891 37.5914C159.352 37.5914 157.909 37.6637 157.1 37.6637C156.807 37.6637 156.637 37.6155 156.637 37.447C156.637 37.3507 156.733 37.2303 156.979 37.2303C157.273 37.2303 157.543 37.2077 157.737 37.1596C158.179 37.0633 158.349 36.6796 158.397 36.0778C158.472 35.2126 158.472 34.373 158.472 34.036V32.3553Z" fill="black"/>
<path fill-rule="evenodd" clip-rule="evenodd" d="M171.239 22.2629H171.4C171.444 22.2629 171.46 22.2479 171.474 22.2479C171.503 22.2479 171.503 22.2779 171.503 22.3351C171.503 22.3788 171.489 22.5789 171.489 22.6075C171.474 22.6812 171.46 22.7098 171.431 22.7098C171.4 22.7098 171.386 22.6812 171.386 22.5789C171.386 22.5082 171.372 22.4645 171.15 22.4645H170.888V23.4155C170.888 23.6743 170.888 23.8052 170.9 23.8909C170.916 23.9631 170.946 24.0354 171.018 24.0354H171.078C171.136 24.0354 171.15 24.064 171.15 24.079C171.15 24.1076 171.136 24.1211 171.078 24.1211C170.989 24.1211 170.784 24.1076 170.71 24.1076C170.623 24.1076 170.417 24.1211 170.313 24.1211C170.255 24.1211 170.241 24.0925 170.241 24.079C170.241 24.0489 170.27 24.0354 170.313 24.0354H170.387C170.491 24.0203 170.491 23.9496 170.505 23.8909C170.505 23.8052 170.52 23.6743 170.52 23.4155V22.4645H170.21C170.051 22.4645 169.977 22.5217 169.962 22.6075C169.947 22.6661 169.933 22.6812 169.904 22.6812C169.873 22.6812 169.873 22.6526 169.873 22.6075C169.873 22.5217 169.933 22.3201 169.933 22.2779C169.933 22.2479 169.962 22.2193 169.962 22.2193C169.993 22.2193 169.993 22.2343 170.063 22.2479C170.138 22.2629 170.241 22.2629 170.27 22.2629H171.239ZM171.855 22.3201C171.871 22.2779 171.871 22.2193 171.914 22.2193C171.958 22.2193 171.973 22.2479 172.002 22.2915L172.708 23.602L173.382 22.2779C173.396 22.2343 173.427 22.2193 173.456 22.2193C173.485 22.2193 173.5 22.2629 173.514 22.305L173.75 23.8052C173.778 23.9917 173.824 24.0354 173.896 24.0354H173.954C174 24.0354 174 24.0489 174 24.079C174 24.1076 173.983 24.1211 173.94 24.1211C173.867 24.1211 173.514 24.1076 173.456 24.0925C173.413 24.0925 173.396 24.064 173.396 24.0354L173.25 22.9836H173.235L172.708 23.9782C172.665 24.064 172.648 24.1076 172.605 24.1076C172.56 24.1076 172.531 24.0354 172.501 23.9782L171.973 22.9535H171.958L171.855 23.8623V23.9631C171.855 23.9917 171.871 24.0354 171.914 24.0354H171.973C172.018 24.0354 172.033 24.0489 172.033 24.079C172.033 24.0925 172.033 24.1211 171.987 24.1211C171.9 24.1211 171.753 24.1076 171.694 24.1076C171.636 24.1076 171.547 24.1211 171.46 24.1211C171.415 24.1211 171.4 24.0925 171.4 24.079C171.4 24.0489 171.431 24.0354 171.474 24.0354H171.52C171.562 24.0354 171.59 23.9917 171.605 23.8623L171.855 22.3201Z" fill="black"/>
<path fill-rule="evenodd" clip-rule="evenodd" d="M36.4112 37.1633L35.936 37.1287C33.7544 36.6953 33.2777 33.847 33.1903 32.1347V0.943412C33.1872 0.934384 33.1842 0.920842 33.1842 0.901282C33.1842 0.403244 32.7718 0 32.2643 0C32.0114 0 31.783 0.10081 31.6174 0.263312L0.222291 36.1642C0.225357 36.1657 0.225357 36.1687 0.219224 36.1762C0.0827839 36.3327 0 36.5358 0 36.7585C0 37.2565 0.410854 37.6598 0.916757 37.6598H0.91829H18.6372C19.1415 37.6568 19.5508 37.255 19.5508 36.7585C19.5508 36.4275 19.3469 36.1205 19.0756 35.9626L15.2047 33.8034L14.4382 33.3761C14.1453 33.206 14.0626 32.9487 14.0626 32.6493C14.0626 32.5305 14.0871 32.4161 14.1316 32.3108C14.1867 32.213 14.2573 32.1107 14.3416 32.0023L26.0479 17.2673L26.0494 17.2658L26.2579 17.0025C26.4066 16.8535 26.5768 16.7753 26.5768 17.2086L26.5921 36.7705C26.5982 37.2626 27.0045 37.6598 27.5073 37.6598H31.4319V37.6643H36.3867C36.3897 37.6628 36.3913 37.6613 36.3959 37.6613C36.5354 37.6613 36.6504 37.5485 36.6504 37.4115C36.6504 37.2776 36.543 37.1723 36.4112 37.1633Z" fill="black"/>
</g>
<defs>
<clipPath id="clip0">
<rect width="1440" height="2116" fill="white" transform="translate(-222 -91)"/>
</clipPath>
</defs>
</svg>
